<mxfile host="app.diagrams.net" modified="2024-06-10T16:58:53.658Z" agent="Mozilla/5.0 (Windows NT 10.0; Win64; x64; rv:126.0) Gecko/20100101 Firefox/126.0" etag="lk--t27ObKhUsxKXOW9n" version="24.5.2" type="github">
  <diagram name="Page-1" id="LliTMoAP3RAonW_pft9a">
    <mxGraphModel dx="1338" dy="663" grid="1" gridSize="10" guides="1" tooltips="1" connect="1" arrows="1" fold="1" page="1" pageScale="1" pageWidth="1100" pageHeight="850" math="0" shadow="0">
      <root>
        <mxCell id="0" />
        <mxCell id="1" parent="0" />
        <mxCell id="OmPB4cYDcqWmJxWOJFD4-1" value="Migrate from EM to Built-in" style="swimlane;" vertex="1" parent="1">
          <mxGeometry x="60" y="50" width="430" height="270" as="geometry">
            <mxRectangle x="60" y="50" width="230" height="30" as="alternateBounds" />
          </mxGeometry>
        </mxCell>
        <mxCell id="OmPB4cYDcqWmJxWOJFD4-5" value="" style="edgeStyle=orthogonalEdgeStyle;rounded=0;orthogonalLoop=1;jettySize=auto;html=1;" edge="1" parent="OmPB4cYDcqWmJxWOJFD4-1" source="OmPB4cYDcqWmJxWOJFD4-3" target="OmPB4cYDcqWmJxWOJFD4-4">
          <mxGeometry relative="1" as="geometry" />
        </mxCell>
        <mxCell id="OmPB4cYDcqWmJxWOJFD4-3" value="Access MyCap&lt;br&gt;Project" style="rounded=1;whiteSpace=wrap;html=1;absoluteArcSize=1;arcSize=14;strokeWidth=2;" vertex="1" parent="OmPB4cYDcqWmJxWOJFD4-1">
          <mxGeometry x="97" y="105" width="90" height="40" as="geometry" />
        </mxCell>
        <mxCell id="OmPB4cYDcqWmJxWOJFD4-7" value="" style="edgeStyle=orthogonalEdgeStyle;rounded=0;orthogonalLoop=1;jettySize=auto;html=1;" edge="1" parent="OmPB4cYDcqWmJxWOJFD4-1" source="OmPB4cYDcqWmJxWOJFD4-4" target="OmPB4cYDcqWmJxWOJFD4-6">
          <mxGeometry relative="1" as="geometry" />
        </mxCell>
        <mxCell id="OmPB4cYDcqWmJxWOJFD4-16" value="" style="edgeStyle=orthogonalEdgeStyle;rounded=0;orthogonalLoop=1;jettySize=auto;html=1;" edge="1" parent="OmPB4cYDcqWmJxWOJFD4-1" source="OmPB4cYDcqWmJxWOJFD4-4" target="OmPB4cYDcqWmJxWOJFD4-15">
          <mxGeometry relative="1" as="geometry" />
        </mxCell>
        <mxCell id="OmPB4cYDcqWmJxWOJFD4-4" value="External&lt;br&gt;Module?" style="rhombus;whiteSpace=wrap;html=1;rounded=1;arcSize=14;strokeWidth=2;" vertex="1" parent="OmPB4cYDcqWmJxWOJFD4-1">
          <mxGeometry x="210" y="85" width="80" height="80" as="geometry" />
        </mxCell>
        <mxCell id="OmPB4cYDcqWmJxWOJFD4-6" value="End" style="strokeWidth=2;html=1;shape=mxgraph.flowchart.terminator;whiteSpace=wrap;" vertex="1" parent="OmPB4cYDcqWmJxWOJFD4-1">
          <mxGeometry x="217.5" y="190" width="65" height="40" as="geometry" />
        </mxCell>
        <mxCell id="OmPB4cYDcqWmJxWOJFD4-8" value="No" style="text;html=1;align=center;verticalAlign=middle;whiteSpace=wrap;rounded=0;fontStyle=1" vertex="1" parent="OmPB4cYDcqWmJxWOJFD4-1">
          <mxGeometry x="240" y="160" width="60" height="30" as="geometry" />
        </mxCell>
        <UserObject label="project list" link="data:page/id,LliTMoAP3RAonW_pft9a" linkTarget="_blank" id="OmPB4cYDcqWmJxWOJFD4-11">
          <mxCell style="strokeWidth=2;html=1;shape=mxgraph.flowchart.database;whiteSpace=wrap;" vertex="1" parent="OmPB4cYDcqWmJxWOJFD4-1">
            <mxGeometry x="112" y="35" width="60" height="50" as="geometry" />
          </mxCell>
        </UserObject>
        <mxCell id="OmPB4cYDcqWmJxWOJFD4-12" value="" style="endArrow=none;html=1;rounded=0;entryX=0.5;entryY=1;entryDx=0;entryDy=0;entryPerimeter=0;exitX=0.5;exitY=0;exitDx=0;exitDy=0;" edge="1" parent="OmPB4cYDcqWmJxWOJFD4-1" source="OmPB4cYDcqWmJxWOJFD4-3" target="OmPB4cYDcqWmJxWOJFD4-11">
          <mxGeometry width="50" height="50" relative="1" as="geometry">
            <mxPoint x="45" y="215" as="sourcePoint" />
            <mxPoint x="95" y="165" as="targetPoint" />
          </mxGeometry>
        </mxCell>
        <mxCell id="OmPB4cYDcqWmJxWOJFD4-15" value="Click &quot;&lt;b&gt;Migrate&lt;br&gt;to REDCap&lt;/b&gt;&quot;" style="rounded=1;whiteSpace=wrap;html=1;absoluteArcSize=1;arcSize=14;strokeWidth=2;" vertex="1" parent="OmPB4cYDcqWmJxWOJFD4-1">
          <mxGeometry x="314" y="105" width="90" height="40" as="geometry" />
        </mxCell>
        <mxCell id="OmPB4cYDcqWmJxWOJFD4-19" value="" style="edgeStyle=orthogonalEdgeStyle;rounded=0;orthogonalLoop=1;jettySize=auto;html=1;" edge="1" parent="OmPB4cYDcqWmJxWOJFD4-1" source="OmPB4cYDcqWmJxWOJFD4-18" target="OmPB4cYDcqWmJxWOJFD4-3">
          <mxGeometry relative="1" as="geometry" />
        </mxCell>
        <mxCell id="OmPB4cYDcqWmJxWOJFD4-18" value="Start" style="strokeWidth=2;html=1;shape=mxgraph.flowchart.terminator;whiteSpace=wrap;" vertex="1" parent="OmPB4cYDcqWmJxWOJFD4-1">
          <mxGeometry x="10" y="105" width="65" height="40" as="geometry" />
        </mxCell>
        <mxCell id="OmPB4cYDcqWmJxWOJFD4-28" value="Enable project to use new MyCap App" style="swimlane;startSize=23;" vertex="1" parent="1">
          <mxGeometry x="502" y="50" width="430" height="270" as="geometry">
            <mxRectangle x="60" y="50" width="230" height="30" as="alternateBounds" />
          </mxGeometry>
        </mxCell>
        <mxCell id="OmPB4cYDcqWmJxWOJFD4-29" value="" style="edgeStyle=orthogonalEdgeStyle;rounded=0;orthogonalLoop=1;jettySize=auto;html=1;" edge="1" parent="OmPB4cYDcqWmJxWOJFD4-28" source="OmPB4cYDcqWmJxWOJFD4-30" target="OmPB4cYDcqWmJxWOJFD4-33">
          <mxGeometry relative="1" as="geometry" />
        </mxCell>
        <mxCell id="OmPB4cYDcqWmJxWOJFD4-30" value="Access MyCap&lt;br&gt;Participant Management" style="rounded=1;whiteSpace=wrap;html=1;absoluteArcSize=1;arcSize=14;strokeWidth=2;" vertex="1" parent="OmPB4cYDcqWmJxWOJFD4-28">
          <mxGeometry x="10" y="100" width="100" height="50" as="geometry" />
        </mxCell>
        <mxCell id="OmPB4cYDcqWmJxWOJFD4-31" value="" style="edgeStyle=orthogonalEdgeStyle;rounded=0;orthogonalLoop=1;jettySize=auto;html=1;" edge="1" parent="OmPB4cYDcqWmJxWOJFD4-28" source="OmPB4cYDcqWmJxWOJFD4-33" target="OmPB4cYDcqWmJxWOJFD4-34">
          <mxGeometry relative="1" as="geometry" />
        </mxCell>
        <mxCell id="OmPB4cYDcqWmJxWOJFD4-32" value="" style="edgeStyle=orthogonalEdgeStyle;rounded=0;orthogonalLoop=1;jettySize=auto;html=1;" edge="1" parent="OmPB4cYDcqWmJxWOJFD4-28" source="OmPB4cYDcqWmJxWOJFD4-33" target="OmPB4cYDcqWmJxWOJFD4-38">
          <mxGeometry relative="1" as="geometry" />
        </mxCell>
        <mxCell id="OmPB4cYDcqWmJxWOJFD4-33" value="Converted to&lt;br&gt;new MyCap&lt;br&gt;App?" style="rhombus;whiteSpace=wrap;html=1;rounded=1;arcSize=14;strokeWidth=2;" vertex="1" parent="OmPB4cYDcqWmJxWOJFD4-28">
          <mxGeometry x="140" y="70" width="110" height="110" as="geometry" />
        </mxCell>
        <mxCell id="OmPB4cYDcqWmJxWOJFD4-34" value="End" style="strokeWidth=2;html=1;shape=mxgraph.flowchart.terminator;whiteSpace=wrap;" vertex="1" parent="OmPB4cYDcqWmJxWOJFD4-28">
          <mxGeometry x="162.5" y="210" width="65" height="40" as="geometry" />
        </mxCell>
        <mxCell id="OmPB4cYDcqWmJxWOJFD4-35" value="Yes" style="text;html=1;align=center;verticalAlign=middle;whiteSpace=wrap;rounded=0;fontStyle=1" vertex="1" parent="OmPB4cYDcqWmJxWOJFD4-28">
          <mxGeometry x="153" y="174" width="60" height="30" as="geometry" />
        </mxCell>
        <mxCell id="OmPB4cYDcqWmJxWOJFD4-38" value="Click &quot;&lt;b&gt;Click to transition&lt;/b&gt;&quot;" style="rounded=1;whiteSpace=wrap;html=1;absoluteArcSize=1;arcSize=14;strokeWidth=2;" vertex="1" parent="OmPB4cYDcqWmJxWOJFD4-28">
          <mxGeometry x="278" y="105" width="90" height="40" as="geometry" />
        </mxCell>
        <mxCell id="OmPB4cYDcqWmJxWOJFD4-42" value="" style="edgeStyle=orthogonalEdgeStyle;rounded=0;orthogonalLoop=1;jettySize=auto;html=1;entryX=0;entryY=0.5;entryDx=0;entryDy=0;" edge="1" parent="1" source="OmPB4cYDcqWmJxWOJFD4-15" target="OmPB4cYDcqWmJxWOJFD4-30">
          <mxGeometry relative="1" as="geometry">
            <mxPoint x="500" y="175" as="targetPoint" />
          </mxGeometry>
        </mxCell>
      </root>
    </mxGraphModel>
  </diagram>
</mxfile>
